<svg width="157" height="1212" viewBox="0 0 157 1212" fill="none" xmlns="http://www.w3.org/2000/svg">
<path d="M124.658 3.07714C116.629 34.6654 82.4393 69.6696 81.707 104.896C79.769 144.348 94.3652 138.106 103.259 165.527C106.377 175.142 112.151 198.503 112.488 212.036C114.11 240.148 110.34 243.274 106.374 244.775C93.4977 249.649 72.0988 188.578 78.6522 238.407C83.1216 272.39 88.0544 295.175 92.6808 319.693C97.259 343.957 103.738 367.794 108.986 405.597C116.466 459.484 126.164 463.51 117.172 544.666C110.563 604.305 56.5064 652.741 50.3843 691.566C44.2859 730.243 97.8297 714.266 90.7132 758.625C81.2304 817.731 43.7741 827.472 40.1609 879.291C36.2535 935.335 97.1966 1002.24 79.5265 1020.29C61.8562 1038.34 14.9687 1031.31 19.6018 1048.47C21.9768 1057.27 85.4808 1022.85 93.2059 1046.56C98.6157 1063.16 92.0258 1094.43 74.3688 1110.43C58.4854 1124.83 29.5735 1086.67 18.0797 1098C9.8012 1106.16 19.2949 1171.93 25.2537 1208.08L17.842 1208.08C10.9033 1173.18 1.27517 1099.85 11.2902 1091.11C33.6433 1071.61 58.9278 1119.17 73.9433 1099.99C80.9828 1090.99 88.6581 1072.28 85.8843 1053.78C82.0814 1028.41 17.9229 1074.62 12.0115 1049.66C5.89895 1023.85 77.0471 1032.32 76.3638 1010.19C75.5578 984.154 30.0602 930.654 34.8388 875.525C38.9914 827.62 75.3922 810.051 84.4281 762.823C92.3982 721.164 37.4606 736.485 44.3423 692.27C50.5691 652.265 99.9086 605.392 110.984 542.86C118.746 491.369 113.73 460.175 103.443 406.326C98.0176 377.923 91.2687 347.139 86.1641 319.874C79.2805 283.108 74.5909 252.292 72.6597 238.113C69.2965 213.418 76.2885 201.747 87.6487 218.325C95.1391 229.255 101.849 239.393 105.194 238.209C108.541 237.024 108.522 224.511 107.494 211.79C105.671 189.226 100.918 175.924 97.7895 164.758C90.805 143.89 75.1939 148.053 76.5281 105.143C77.6019 70.6172 109.723 31.7836 118.502 3.07694L124.658 3.07714Z" fill="url(#paint0_linear_4023_3290)"/>
<circle cx="114.5" cy="509.5" r="29.5" fill="#00A7B5"/>
<path d="M101 505.708V520.688C101 521.696 101.812 522.508 102.82 522.508H125.78C126.788 522.508 127.6 521.696 127.6 520.688V505.708H101ZM109.428 518.196C109.428 518.504 109.176 518.784 108.84 518.784H105.9C105.592 518.784 105.312 518.532 105.312 518.196V516.124C105.312 515.816 105.564 515.536 105.9 515.536H108.868C109.176 515.536 109.456 515.788 109.456 516.124V518.196H109.428ZM109.428 512.148C109.428 512.456 109.176 512.736 108.84 512.736H105.9C105.592 512.736 105.312 512.484 105.312 512.148V510.048C105.312 509.74 105.564 509.46 105.9 509.46H108.868C109.176 509.46 109.456 509.712 109.456 510.048V512.148H109.428ZM116.344 518.196C116.344 518.504 116.092 518.784 115.756 518.784H112.816C112.508 518.784 112.228 518.532 112.228 518.196V516.124C112.228 515.816 112.48 515.536 112.816 515.536H115.784C116.092 515.536 116.372 515.788 116.372 516.124V518.196H116.344ZM116.344 512.148C116.344 512.456 116.092 512.736 115.756 512.736H112.816C112.508 512.736 112.228 512.484 112.228 512.148V510.048C112.228 509.74 112.48 509.46 112.816 509.46H115.784C116.092 509.46 116.372 509.712 116.372 510.048V512.148H116.344ZM123.288 518.196C123.288 518.504 123.036 518.784 122.7 518.784H119.732C119.424 518.784 119.144 518.532 119.144 518.196V516.124C119.144 515.816 119.396 515.536 119.732 515.536H122.7C123.008 515.536 123.288 515.788 123.288 516.124V518.196ZM123.288 512.148C123.288 512.456 123.036 512.736 122.7 512.736H119.732C119.424 512.736 119.144 512.484 119.144 512.148V510.048C119.144 509.74 119.396 509.46 119.732 509.46H122.7C123.008 509.46 123.288 509.712 123.288 510.048V512.148Z" fill="white"/>
<path d="M127.6 501.2C127.6 500.192 126.788 499.38 125.78 499.38H124.436V498.596C124.436 497.728 123.736 497 122.84 497C121.972 497 121.244 497.7 121.244 498.596V499.38H107.356V498.596C107.356 497.728 106.656 497 105.76 497C104.864 497 104.164 497.7 104.164 498.596V499.38H102.82C101.812 499.38 101 500.192 101 501.2V504.14H127.6V501.2Z" fill="white"/>
<circle cx="78.5" cy="795.5" r="29.5" fill="#00A7B5"/>
<path d="M65 791.708V806.688C65 807.696 65.812 808.508 66.82 808.508H89.78C90.788 808.508 91.6 807.696 91.6 806.688V791.708H65ZM73.428 804.196C73.428 804.504 73.176 804.784 72.84 804.784H69.9C69.592 804.784 69.312 804.532 69.312 804.196V802.124C69.312 801.816 69.564 801.536 69.9 801.536H72.868C73.176 801.536 73.456 801.788 73.456 802.124V804.196H73.428ZM73.428 798.148C73.428 798.456 73.176 798.736 72.84 798.736H69.9C69.592 798.736 69.312 798.484 69.312 798.148V796.048C69.312 795.74 69.564 795.46 69.9 795.46H72.868C73.176 795.46 73.456 795.712 73.456 796.048V798.148H73.428ZM80.344 804.196C80.344 804.504 80.092 804.784 79.756 804.784H76.816C76.508 804.784 76.228 804.532 76.228 804.196V802.124C76.228 801.816 76.48 801.536 76.816 801.536H79.784C80.092 801.536 80.372 801.788 80.372 802.124V804.196H80.344ZM80.344 798.148C80.344 798.456 80.092 798.736 79.756 798.736H76.816C76.508 798.736 76.228 798.484 76.228 798.148V796.048C76.228 795.74 76.48 795.46 76.816 795.46H79.784C80.092 795.46 80.372 795.712 80.372 796.048V798.148H80.344ZM87.288 804.196C87.288 804.504 87.036 804.784 86.7 804.784H83.732C83.424 804.784 83.144 804.532 83.144 804.196V802.124C83.144 801.816 83.396 801.536 83.732 801.536H86.7C87.008 801.536 87.288 801.788 87.288 802.124V804.196ZM87.288 798.148C87.288 798.456 87.036 798.736 86.7 798.736H83.732C83.424 798.736 83.144 798.484 83.144 798.148V796.048C83.144 795.74 83.396 795.46 83.732 795.46H86.7C87.008 795.46 87.288 795.712 87.288 796.048V798.148Z" fill="white"/>
<path d="M91.6 787.2C91.6 786.192 90.788 785.38 89.78 785.38H88.436V784.596C88.436 783.728 87.736 783 86.84 783C85.972 783 85.244 783.7 85.244 784.596V785.38H71.356V784.596C71.356 783.728 70.656 783 69.76 783C68.864 783 68.164 783.7 68.164 784.596V785.38H66.82C65.812 785.38 65 786.192 65 787.2V790.14H91.6V787.2Z" fill="white"/>
<circle cx="113.5" cy="219.5" r="29.5" fill="#00A7B5"/>
<path d="M116.636 216.659C115.065 216.659 113.793 215.387 113.793 213.818V207H105.273C104.018 207 103 208.018 103 209.273V229.727C103 230.982 104.018 232 105.273 232H121.181C122.436 232 123.454 230.982 123.454 229.727V216.659H116.636ZM119.477 227.455H106.977C106.663 227.455 106.408 227.2 106.408 226.886C106.408 226.572 106.663 226.318 106.977 226.318H119.477C119.791 226.318 120.045 226.572 120.045 226.886C120.045 227.2 119.791 227.455 119.477 227.455ZM119.477 224.045H106.977C106.663 224.045 106.408 223.791 106.408 223.477C106.408 223.163 106.663 222.909 106.977 222.909H119.477C119.791 222.909 120.045 223.163 120.045 223.477C120.045 223.791 119.791 224.045 119.477 224.045ZM119.477 220.637H106.977C106.663 220.637 106.408 220.382 106.408 220.068C106.408 219.754 106.663 219.5 106.977 219.5H119.477C119.791 219.5 120.045 219.754 120.045 220.068C120.045 220.382 119.791 220.637 119.477 220.637Z" fill="white"/>
<path d="M116.636 215.525L122.413 215.521L114.929 208.037V213.819C114.931 214.758 115.696 215.521 116.636 215.525Z" fill="white"/>
<circle cx="73.5" cy="1005.5" r="29.5" fill="#00A7B5"/>
<path d="M86.3153 1008.78L82.3633 1008.73C82.3593 1008.73 82.3593 1008.73 82.3553 1008.73C82.1153 1008.73 81.8953 1008.88 81.8033 1009.1C80.3713 1012.51 76.9313 1014.67 73.2433 1014.47C68.8353 1014.24 65.2753 1010.75 64.9673 1006.35C64.7953 1003.89 65.6233 1001.54 67.2993 999.744C68.9553 997.968 71.2913 996.952 73.7113 996.952C75.4033 996.952 77.0233 997.428 78.4353 998.34L76.7593 1000.02C76.3673 1000.41 76.2513 1001 76.4633 1001.51C76.6753 1002.02 77.1713 1002.35 77.7273 1002.35H85.0153C85.7713 1002.35 86.3833 1001.74 86.3833 1000.98V993.692C86.3833 993.136 86.0513 992.64 85.5393 992.428C85.0273 992.216 84.4393 992.332 84.0473 992.724L81.9833 994.788C79.2313 992.696 75.8433 991.732 72.3753 992.064C65.6433 992.708 60.3273 998.3 60.0153 1005.07C59.8393 1008.86 61.1833 1012.44 63.7993 1015.18C66.4153 1017.92 69.9393 1019.43 73.7153 1019.43C79.7753 1019.43 85.1913 1015.37 86.8873 1009.54C86.9393 1009.36 86.9033 1009.17 86.7913 1009.02C86.6793 1008.87 86.5033 1008.78 86.3153 1008.78Z" fill="white"/>
<defs>
<linearGradient id="paint0_linear_4023_3290" x1="52.7648" y1="102.974" x2="99.831" y2="1103.98" gradientUnits="userSpaceOnUse">
<stop stop-color="#64A70B"/>
<stop offset="1" stop-color="#009CDE"/>
</linearGradient>
</defs>
</svg>
